<svg xmlns="http://www.w3.org/2000/svg" xmlns:xlink="http://www.w3.org/1999/xlink" width="256" zoomAndPan="magnify" viewBox="0 0 192 191.999996" height="256" preserveAspectRatio="xMidYMid meet" version="1.0"><defs><filter x="0%" y="0%" width="100%" height="100%" id="100397fbbe"><feColorMatrix values="0 0 0 0 1 0 0 0 0 1 0 0 0 0 1 0 0 0 1 0" color-interpolation-filters="sRGB"/></filter><mask id="3cc6dc636e"><g filter="url(#100397fbbe)"><rect x="-19.2" width="230.4" fill="#000000" y="-19.2" height="230.399995" fill-opacity="0.8"/></g></mask><clipPath id="ac656fdcbe"><path d="M 1 0.078125 L 134 0.078125 L 134 135.921875 L 1 135.921875 Z M 1 0.078125 " clip-rule="nonzero"/></clipPath><clipPath id="35773c411d"><path d="M 110 35 L 166.746094 35 L 166.746094 135 L 110 135 Z M 110 35 " clip-rule="nonzero"/></clipPath><clipPath id="f05afef36f"><rect x="0" width="168" y="0" height="136"/></clipPath></defs><g mask="url(#3cc6dc636e)"><g transform="matrix(1, 0, 0, 1, 12, 28)"><g clip-path="url(#f05afef36f)"><g clip-path="url(#ac656fdcbe)"><path fill="#a6a6a6" d="M 130.222656 24.296875 C 131.402344 26.117188 133.164062 30.84375 133.128906 38.011719 C 133.054688 52.015625 128.636719 83.484375 122.640625 104.890625 C 120.03125 114.203125 116.949219 121.785156 114.019531 126.136719 C 111.144531 130.410156 107.8125 132.808594 104.910156 133.980469 C 100.28125 135.847656 89.558594 136.0625 76.496094 133.761719 C 52.699219 129.570312 18.878906 119.273438 11.761719 116.238281 C 7.980469 114.625 3.992188 111.15625 2.257812 104.453125 C 1.058594 99.828125 0.984375 91.511719 2.3125 81.433594 C 5.253906 59.121094 14.1875 26.40625 20.398438 13.402344 C 24.289062 5.261719 29.777344 1.914062 32.523438 1.136719 C 35.640625 0.253906 42.261719 -0.0429688 50.828125 0.894531 C 65.90625 2.539062 88.96875 7.21875 105.078125 11.726562 C 114.292969 14.304688 121.472656 17.066406 124.742188 19.101562 C 127.554688 20.847656 129.242188 22.785156 130.222656 24.296875 Z M 117.925781 32.285156 C 117.816406 32.113281 117.597656 31.953125 117.320312 31.761719 C 116.671875 31.3125 115.742188 30.835938 114.578125 30.324219 C 111.453125 28.953125 106.734375 27.414062 101.128906 25.84375 C 85.71875 21.535156 63.65625 17.042969 49.234375 15.46875 C 43.285156 14.816406 38.6875 14.628906 36.519531 15.242188 C 36.398438 15.277344 36.296875 15.402344 36.160156 15.546875 C 35.859375 15.851562 35.546875 16.273438 35.214844 16.796875 C 34.0625 18.589844 32.761719 21.441406 31.382812 25.023438 C 25.871094 39.328125 19.257812 65.078125 16.847656 83.351562 C 15.980469 89.941406 15.652344 95.539062 16.15625 99.226562 C 16.304688 100.3125 16.519531 101.214844 16.835938 101.898438 C 17.027344 102.304688 17.214844 102.625 17.515625 102.75 C 24.273438 105.632812 56.429688 115.339844 79.039062 119.324219 C 84.796875 120.335938 89.925781 120.980469 93.839844 121.03125 C 96.25 121.0625 98.164062 120.890625 99.417969 120.386719 C 100.585938 119.914062 101.664062 118.453125 102.808594 116.375 C 104.804688 112.761719 106.730469 107.328125 108.523438 100.933594 C 113.46875 83.273438 117.320312 58.351562 118.253906 43.554688 C 118.488281 39.8125 118.539062 36.734375 118.363281 34.597656 C 118.273438 33.476562 118.179688 32.671875 117.925781 32.285156 Z M 117.925781 32.285156 " fill-opacity="1" fill-rule="evenodd"/></g><path fill="#a6a6a6" d="M 74.851562 34.363281 C 87.144531 36.976562 95.003906 49.078125 92.390625 61.367188 C 90.847656 68.621094 85.574219 76.125 78.984375 80.410156 C 74.460938 83.347656 69.335938 84.769531 64.363281 83.710938 C 59.394531 82.65625 55.289062 79.269531 52.351562 74.75 C 48.074219 68.15625 46.308594 59.152344 47.847656 51.902344 C 50.460938 39.609375 62.5625 31.75 74.851562 34.363281 Z M 74.851562 34.363281 " fill-opacity="1" fill-rule="evenodd"/><path fill="#a6a6a6" d="M 82.09375 81.769531 C 94.964844 87.6875 104.722656 96.730469 109.402344 106.710938 C 109.5625 107.046875 109.582031 107.429688 109.46875 107.78125 C 107.878906 112.585938 106.199219 116.542969 104.5 119.191406 C 103.195312 121.226562 101.820312 122.535156 100.5 123.066406 C 98.992188 123.675781 96.699219 123.964844 93.800781 123.925781 C 89.761719 123.871094 84.472656 123.21875 78.539062 122.171875 C 55.695312 118.148438 23.210938 108.324219 16.378906 105.414062 C 15.308594 104.957031 14.40625 103.890625 13.84375 102.167969 C 12.875 99.191406 12.8125 93.878906 13.480469 87.257812 C 13.515625 86.890625 13.695312 86.546875 13.976562 86.308594 C 22.3125 79.152344 34.855469 74.894531 48.957031 74.722656 C 49.265625 75.269531 49.589844 75.804688 49.925781 76.324219 C 53.292969 81.511719 58.058594 85.328125 63.761719 86.542969 C 69.46875 87.753906 75.371094 86.207031 80.558594 82.835938 C 81.078125 82.496094 81.589844 82.140625 82.09375 81.769531 Z M 82.09375 81.769531 " fill-opacity="1" fill-rule="evenodd"/><g clip-path="url(#35773c411d)"><path fill="#a6a6a6" d="M 135.980469 35.933594 C 136.367188 35.957031 136.75 35.980469 137.125 36.003906 C 144.605469 36.480469 150.550781 37.433594 153.386719 38.457031 C 155.867188 39.351562 157.503906 40.585938 158.519531 41.601562 C 159.734375 42.816406 161.890625 46.183594 163.039062 51.738281 C 165.253906 62.433594 166.988281 87.15625 165.886719 104.460938 C 165.402344 112.019531 164.269531 118.332031 162.738281 122.140625 C 161.210938 125.933594 159.011719 128.34375 156.949219 129.734375 C 153.703125 131.925781 145.507812 133.859375 135.105469 134.222656 C 127.726562 134.480469 119.019531 134.277344 110.808594 133.859375 C 112.726562 132.371094 114.65625 130.375 116.421875 127.753906 C 117.4375 126.242188 118.476562 124.355469 119.511719 122.15625 C 128.679688 122.417969 137.703125 122.316406 143.871094 121.464844 C 146.78125 121.066406 149.015625 120.542969 150.207031 119.738281 C 150.976562 119.21875 151.507812 117.984375 152.015625 116.304688 C 152.941406 113.246094 153.523438 108.824219 153.851562 103.695312 C 154.761719 89.460938 153.660156 69.886719 151.976562 58.480469 C 151.554688 55.613281 151.097656 53.273438 150.621094 51.6875 C 150.390625 50.917969 150.226562 50.363281 149.992188 50.128906 C 149.882812 50.015625 149.671875 49.941406 149.414062 49.84375 C 148.964844 49.667969 148.394531 49.511719 147.71875 49.359375 C 144.980469 48.742188 140.648438 48.285156 135.507812 47.984375 C 135.828125 44.140625 136.007812 40.753906 136.019531 38.023438 C 136.023438 37.304688 136.011719 36.609375 135.980469 35.933594 Z M 135.980469 35.933594 " fill-opacity="1" fill-rule="evenodd"/></g><path fill="#a6a6a6" d="M 133.277344 66.984375 C 134.878906 69.679688 135.800781 72.828125 135.800781 76.191406 C 135.800781 82.054688 132.933594 88.714844 128.535156 93.117188 C 130.410156 84.636719 132.027344 75.539062 133.277344 66.984375 Z M 133.277344 66.984375 " fill-opacity="1" fill-rule="evenodd"/><path fill="#a6a6a6" d="M 127.464844 97.769531 C 129.1875 96.570312 130.773438 95.066406 132.179688 93.359375 C 142.496094 95.914062 151.003906 101.132812 156.035156 107.777344 C 156.257812 108.074219 156.359375 108.441406 156.320312 108.808594 C 155.882812 112.761719 155.238281 116.074219 154.367188 118.386719 C 153.671875 120.226562 152.785156 121.488281 151.824219 122.136719 C 150.394531 123.101562 147.753906 123.851562 144.269531 124.332031 C 137.671875 125.242188 127.878906 125.324219 118.074219 125.003906 C 120.613281 120.347656 123.199219 113.621094 125.425781 105.671875 C 126.128906 103.160156 126.8125 100.511719 127.464844 97.769531 Z M 127.464844 97.769531 " fill-opacity="1" fill-rule="evenodd"/></g></g></g></svg>