<svg xmlns="http://www.w3.org/2000/svg" xmlns:xlink="http://www.w3.org/1999/xlink" width="256" zoomAndPan="magnify" viewBox="0 0 192 191.999996" height="256" preserveAspectRatio="xMidYMid meet" version="1.0"><defs><clipPath id="28c74eb170"><path d="M 10.46875 10.46875 L 181.46875 10.46875 L 181.46875 181.46875 L 10.46875 181.46875 Z M 10.46875 10.46875 " clip-rule="nonzero"/></clipPath></defs><g clip-path="url(#28c74eb170)"><path fill="#a6a6a6" d="M 95.996094 10.46875 C 48.757812 10.46875 10.46875 48.757812 10.46875 95.996094 C 10.46875 143.234375 48.757812 181.527344 95.996094 181.527344 C 143.234375 181.527344 181.527344 143.234375 181.527344 95.996094 C 181.527344 48.757812 143.234375 10.46875 95.996094 10.46875 Z M 130.207031 104.550781 L 82.429688 104.550781 L 95.996094 118.113281 C 99.332031 121.449219 99.332031 126.871094 95.996094 130.207031 C 92.660156 133.542969 87.238281 133.542969 83.902344 130.207031 L 55.738281 102.042969 C 52.394531 98.699219 52.394531 93.285156 55.738281 89.949219 L 83.902344 61.785156 C 87.238281 58.449219 92.660156 58.449219 95.996094 61.785156 C 99.332031 65.121094 99.332031 70.542969 95.996094 73.878906 L 82.429688 87.445312 L 130.207031 87.445312 C 134.929688 87.445312 138.761719 91.273438 138.761719 95.996094 C 138.761719 100.71875 134.929688 104.550781 130.207031 104.550781 Z M 130.207031 104.550781 " fill-opacity="1" fill-rule="nonzero"/></g></svg>