<svg xmlns="http://www.w3.org/2000/svg" xmlns:xlink="http://www.w3.org/1999/xlink" width="256" zoomAndPan="magnify" viewBox="0 0 192 191.999996" height="256" preserveAspectRatio="xMidYMid meet" version="1.0"><path fill="#ffffff" d="M 171.558594 155.082031 C 176.105469 159.628906 176.105469 167.011719 171.558594 171.558594 C 167.011719 176.105469 159.628906 176.105469 155.082031 171.558594 L 95.957031 112.433594 L 36.832031 171.558594 C 32.285156 176.105469 24.902344 176.105469 20.355469 171.558594 C 15.808594 167.011719 15.808594 159.628906 20.355469 155.082031 L 79.480469 95.957031 L 20.355469 36.832031 C 15.808594 32.285156 15.808594 24.902344 20.355469 20.355469 C 24.902344 15.808594 32.285156 15.808594 36.832031 20.355469 L 95.957031 79.480469 L 155.082031 20.355469 C 159.628906 15.808594 167.011719 15.808594 171.558594 20.355469 C 176.105469 24.902344 176.105469 32.285156 171.558594 36.832031 L 112.433594 95.957031 Z M 171.558594 155.082031 " fill-opacity="1" fill-rule="nonzero"/></svg>