<svg xmlns="http://www.w3.org/2000/svg" xmlns:xlink="http://www.w3.org/1999/xlink" width="256" zoomAndPan="magnify" viewBox="0 0 192 191.999996" height="256" preserveAspectRatio="xMidYMid meet" version="1.0"><defs><clipPath id="8819c335e3"><path d="M 16.683594 16.683594 L 82 16.683594 L 82 82 L 16.683594 82 Z M 16.683594 16.683594 " clip-rule="nonzero"/></clipPath><clipPath id="cf701c4236"><path d="M 109 16.683594 L 175.683594 16.683594 L 175.683594 82 L 109 82 Z M 109 16.683594 " clip-rule="nonzero"/></clipPath><clipPath id="284d30ba31"><path d="M 109 109 L 175.683594 109 L 175.683594 175.683594 L 109 175.683594 Z M 109 109 " clip-rule="nonzero"/></clipPath><clipPath id="8acaf55f73"><path d="M 16.683594 109 L 82 109 L 82 175.683594 L 16.683594 175.683594 Z M 16.683594 109 " clip-rule="nonzero"/></clipPath></defs><g clip-path="url(#8819c335e3)"><path fill="#ffffff" d="M 68.003906 16.683594 L 45.523438 16.683594 C 44.582031 16.683594 43.636719 16.734375 42.699219 16.828125 C 41.761719 16.921875 40.828125 17.0625 39.902344 17.25 C 38.976562 17.4375 38.0625 17.667969 37.160156 17.941406 C 36.257812 18.21875 35.371094 18.539062 34.5 18.898438 C 33.628906 19.261719 32.777344 19.667969 31.945312 20.113281 C 31.113281 20.558594 30.304688 21.042969 29.519531 21.570312 C 28.734375 22.09375 27.980469 22.65625 27.25 23.253906 C 26.519531 23.855469 25.820312 24.488281 25.152344 25.152344 C 24.488281 25.820312 23.855469 26.519531 23.253906 27.25 C 22.65625 27.980469 22.09375 28.734375 21.570312 29.519531 C 21.042969 30.304688 20.558594 31.113281 20.113281 31.945312 C 19.667969 32.777344 19.261719 33.628906 18.898438 34.5 C 18.539062 35.371094 18.21875 36.257812 17.941406 37.160156 C 17.667969 38.0625 17.4375 38.976562 17.25 39.902344 C 17.0625 40.828125 16.921875 41.761719 16.828125 42.699219 C 16.734375 43.636719 16.683594 44.582031 16.683594 45.523438 L 16.683594 68.003906 C 16.683594 68.921875 16.773438 69.832031 16.949219 70.734375 C 17.128906 71.632812 17.394531 72.507812 17.746094 73.359375 C 18.097656 74.207031 18.53125 75.015625 19.039062 75.777344 C 19.550781 76.542969 20.132812 77.25 20.78125 77.898438 C 21.429688 78.546875 22.136719 79.128906 22.902344 79.640625 C 23.667969 80.148438 24.472656 80.582031 25.324219 80.933594 C 26.171875 81.285156 27.046875 81.550781 27.949219 81.730469 C 28.847656 81.910156 29.757812 82 30.679688 82 C 31.597656 82 32.507812 81.910156 33.410156 81.730469 C 34.308594 81.550781 35.1875 81.285156 36.035156 80.933594 C 36.882812 80.582031 37.691406 80.148438 38.453125 79.640625 C 39.21875 79.128906 39.925781 78.546875 40.574219 77.898438 C 41.226562 77.25 41.804688 76.542969 42.316406 75.777344 C 42.828125 75.015625 43.257812 74.207031 43.609375 73.359375 C 43.960938 72.507812 44.226562 71.632812 44.40625 70.734375 C 44.585938 69.832031 44.675781 68.921875 44.675781 68.003906 L 44.675781 45.523438 C 44.675781 45.289062 44.757812 45.089844 44.921875 44.921875 C 45.089844 44.757812 45.289062 44.675781 45.523438 44.675781 L 68.003906 44.675781 C 68.921875 44.675781 69.832031 44.585938 70.734375 44.40625 C 71.632812 44.226562 72.507812 43.960938 73.359375 43.609375 C 74.207031 43.257812 75.015625 42.828125 75.777344 42.316406 C 76.542969 41.804688 77.25 41.226562 77.898438 40.574219 C 78.546875 39.925781 79.128906 39.21875 79.640625 38.453125 C 80.148438 37.691406 80.582031 36.882812 80.933594 36.035156 C 81.285156 35.1875 81.550781 34.308594 81.730469 33.410156 C 81.910156 32.507812 82 31.597656 82 30.679688 C 82 29.757812 81.910156 28.847656 81.730469 27.949219 C 81.550781 27.046875 81.285156 26.171875 80.933594 25.324219 C 80.582031 24.472656 80.148438 23.667969 79.640625 22.902344 C 79.128906 22.136719 78.546875 21.429688 77.898438 20.78125 C 77.25 20.132812 76.542969 19.550781 75.777344 19.042969 C 75.015625 18.53125 74.207031 18.097656 73.359375 17.746094 C 72.507812 17.394531 71.632812 17.128906 70.734375 16.949219 C 69.832031 16.773438 68.921875 16.683594 68.003906 16.683594 Z M 68.003906 16.683594 " fill-opacity="1" fill-rule="nonzero"/></g><g clip-path="url(#cf701c4236)"><path fill="#ffffff" d="M 146.464844 16.683594 L 123.988281 16.683594 C 123.066406 16.683594 122.15625 16.773438 121.257812 16.949219 C 120.355469 17.128906 119.480469 17.394531 118.632812 17.746094 C 117.78125 18.097656 116.976562 18.53125 116.210938 19.042969 C 115.449219 19.550781 114.742188 20.132812 114.089844 20.78125 C 113.441406 21.429688 112.859375 22.136719 112.351562 22.902344 C 111.839844 23.667969 111.40625 24.472656 111.054688 25.324219 C 110.703125 26.171875 110.4375 27.046875 110.261719 27.949219 C 110.082031 28.847656 109.992188 29.757812 109.992188 30.679688 C 109.992188 31.597656 110.082031 32.507812 110.261719 33.410156 C 110.4375 34.308594 110.703125 35.1875 111.054688 36.035156 C 111.40625 36.882812 111.839844 37.691406 112.351562 38.453125 C 112.859375 39.21875 113.441406 39.925781 114.089844 40.574219 C 114.742188 41.226562 115.449219 41.804688 116.210938 42.316406 C 116.976562 42.828125 117.78125 43.257812 118.632812 43.609375 C 119.480469 43.960938 120.355469 44.226562 121.257812 44.40625 C 122.15625 44.585938 123.066406 44.675781 123.988281 44.675781 L 146.464844 44.675781 C 146.699219 44.675781 146.898438 44.757812 147.066406 44.921875 C 147.230469 45.089844 147.316406 45.289062 147.316406 45.523438 L 147.316406 68.003906 C 147.316406 68.921875 147.402344 69.832031 147.582031 70.734375 C 147.761719 71.632812 148.027344 72.507812 148.378906 73.359375 C 148.730469 74.207031 149.164062 75.015625 149.671875 75.777344 C 150.183594 76.542969 150.765625 77.25 151.414062 77.898438 C 152.0625 78.546875 152.769531 79.128906 153.535156 79.640625 C 154.300781 80.148438 155.105469 80.582031 155.953125 80.933594 C 156.804688 81.285156 157.679688 81.550781 158.582031 81.730469 C 159.480469 81.910156 160.390625 82 161.3125 82 C 162.230469 82 163.140625 81.910156 164.042969 81.730469 C 164.941406 81.550781 165.816406 81.285156 166.667969 80.933594 C 167.515625 80.582031 168.324219 80.148438 169.085938 79.640625 C 169.851562 79.128906 170.558594 78.546875 171.207031 77.898438 C 171.859375 77.25 172.4375 76.542969 172.949219 75.777344 C 173.457031 75.015625 173.890625 74.207031 174.242188 73.359375 C 174.59375 72.507812 174.859375 71.632812 175.039062 70.734375 C 175.21875 69.832031 175.308594 68.921875 175.308594 68.003906 L 175.308594 45.523438 C 175.304688 44.582031 175.253906 43.636719 175.160156 42.699219 C 175.066406 41.761719 174.925781 40.828125 174.738281 39.902344 C 174.554688 38.976562 174.320312 38.0625 174.046875 37.160156 C 173.769531 36.257812 173.453125 35.371094 173.089844 34.5 C 172.726562 33.628906 172.324219 32.777344 171.878906 31.945312 C 171.429688 31.113281 170.945312 30.304688 170.421875 29.519531 C 169.894531 28.734375 169.332031 27.980469 168.734375 27.25 C 168.136719 26.519531 167.503906 25.820312 166.835938 25.152344 C 166.167969 24.488281 165.46875 23.855469 164.738281 23.253906 C 164.011719 22.65625 163.253906 22.09375 162.46875 21.570312 C 161.683594 21.042969 160.875 20.558594 160.042969 20.113281 C 159.210938 19.667969 158.359375 19.261719 157.488281 18.898438 C 156.617188 18.539062 155.730469 18.21875 154.828125 17.941406 C 153.925781 17.667969 153.011719 17.4375 152.085938 17.25 C 151.160156 17.0625 150.230469 16.921875 149.289062 16.828125 C 148.351562 16.734375 147.410156 16.683594 146.464844 16.683594 Z M 146.464844 16.683594 " fill-opacity="1" fill-rule="nonzero"/></g><g clip-path="url(#284d30ba31)"><path fill="#ffffff" d="M 161.3125 109.992188 C 160.390625 109.992188 159.480469 110.082031 158.582031 110.261719 C 157.679688 110.4375 156.804688 110.703125 155.953125 111.054688 C 155.105469 111.40625 154.300781 111.839844 153.535156 112.351562 C 152.769531 112.859375 152.0625 113.441406 151.414062 114.089844 C 150.765625 114.742188 150.183594 115.449219 149.671875 116.210938 C 149.164062 116.976562 148.730469 117.78125 148.378906 118.632812 C 148.027344 119.480469 147.761719 120.355469 147.582031 121.257812 C 147.402344 122.15625 147.316406 123.066406 147.316406 123.988281 L 147.316406 146.464844 C 147.316406 146.699219 147.230469 146.898438 147.066406 147.066406 C 146.898438 147.230469 146.699219 147.316406 146.464844 147.316406 L 123.988281 147.316406 C 123.066406 147.316406 122.15625 147.402344 121.257812 147.582031 C 120.355469 147.761719 119.480469 148.027344 118.632812 148.378906 C 117.78125 148.730469 116.976562 149.164062 116.210938 149.671875 C 115.449219 150.183594 114.742188 150.765625 114.089844 151.414062 C 113.441406 152.0625 112.859375 152.769531 112.351562 153.535156 C 111.839844 154.300781 111.40625 155.105469 111.054688 155.953125 C 110.703125 156.804688 110.4375 157.679688 110.261719 158.582031 C 110.082031 159.480469 109.992188 160.390625 109.992188 161.3125 C 109.992188 162.230469 110.082031 163.140625 110.261719 164.042969 C 110.4375 164.941406 110.703125 165.816406 111.054688 166.667969 C 111.40625 167.515625 111.839844 168.324219 112.351562 169.085938 C 112.859375 169.851562 113.441406 170.558594 114.089844 171.207031 C 114.742188 171.859375 115.449219 172.4375 116.210938 172.949219 C 116.976562 173.457031 117.78125 173.890625 118.632812 174.242188 C 119.480469 174.59375 120.355469 174.859375 121.257812 175.039062 C 122.15625 175.21875 123.066406 175.308594 123.988281 175.308594 L 146.464844 175.308594 C 147.410156 175.304688 148.351562 175.253906 149.289062 175.160156 C 150.230469 175.066406 151.160156 174.925781 152.085938 174.738281 C 153.011719 174.554688 153.925781 174.320312 154.828125 174.046875 C 155.730469 173.769531 156.617188 173.453125 157.488281 173.089844 C 158.359375 172.726562 159.210938 172.324219 160.042969 171.878906 C 160.875 171.429688 161.683594 170.945312 162.46875 170.421875 C 163.253906 169.894531 164.011719 169.332031 164.738281 168.734375 C 165.46875 168.136719 166.167969 167.503906 166.835938 166.835938 C 167.503906 166.167969 168.136719 165.46875 168.734375 164.738281 C 169.332031 164.011719 169.894531 163.253906 170.421875 162.46875 C 170.945312 161.683594 171.429688 160.875 171.878906 160.042969 C 172.324219 159.210938 172.726562 158.359375 173.089844 157.488281 C 173.453125 156.617188 173.769531 155.730469 174.046875 154.828125 C 174.320312 153.925781 174.554688 153.011719 174.738281 152.085938 C 174.925781 151.160156 175.066406 150.230469 175.160156 149.289062 C 175.253906 148.351562 175.304688 147.410156 175.308594 146.464844 L 175.308594 123.988281 C 175.308594 123.066406 175.21875 122.15625 175.039062 121.257812 C 174.859375 120.355469 174.59375 119.480469 174.242188 118.632812 C 173.890625 117.78125 173.457031 116.976562 172.949219 116.210938 C 172.4375 115.449219 171.859375 114.742188 171.207031 114.089844 C 170.558594 113.441406 169.851562 112.859375 169.085938 112.351562 C 168.324219 111.839844 167.515625 111.40625 166.667969 111.054688 C 165.816406 110.703125 164.941406 110.4375 164.042969 110.261719 C 163.140625 110.082031 162.230469 109.992188 161.3125 109.992188 Z M 161.3125 109.992188 " fill-opacity="1" fill-rule="nonzero"/></g><g clip-path="url(#8acaf55f73)"><path fill="#ffffff" d="M 68.003906 147.316406 L 45.523438 147.316406 C 45.289062 147.316406 45.089844 147.230469 44.921875 147.066406 C 44.757812 146.898438 44.675781 146.699219 44.675781 146.464844 L 44.675781 123.988281 C 44.675781 123.066406 44.585938 122.15625 44.40625 121.257812 C 44.226562 120.355469 43.960938 119.480469 43.609375 118.632812 C 43.257812 117.78125 42.828125 116.976562 42.316406 116.210938 C 41.804688 115.449219 41.226562 114.742188 40.574219 114.089844 C 39.925781 113.441406 39.21875 112.859375 38.453125 112.351562 C 37.691406 111.839844 36.882812 111.40625 36.035156 111.054688 C 35.1875 110.703125 34.308594 110.4375 33.410156 110.261719 C 32.507812 110.082031 31.597656 109.992188 30.679688 109.992188 C 29.757812 109.992188 28.847656 110.082031 27.949219 110.261719 C 27.046875 110.4375 26.171875 110.703125 25.324219 111.054688 C 24.472656 111.40625 23.667969 111.839844 22.902344 112.351562 C 22.136719 112.859375 21.429688 113.441406 20.78125 114.089844 C 20.132812 114.742188 19.550781 115.449219 19.039062 116.210938 C 18.53125 116.976562 18.097656 117.78125 17.746094 118.632812 C 17.394531 119.480469 17.128906 120.355469 16.949219 121.257812 C 16.773438 122.15625 16.683594 123.066406 16.683594 123.988281 L 16.683594 146.464844 C 16.683594 147.410156 16.734375 148.351562 16.828125 149.289062 C 16.921875 150.230469 17.0625 151.160156 17.25 152.085938 C 17.4375 153.011719 17.667969 153.925781 17.941406 154.828125 C 18.21875 155.730469 18.539062 156.617188 18.898438 157.488281 C 19.261719 158.359375 19.667969 159.210938 20.113281 160.042969 C 20.558594 160.875 21.042969 161.683594 21.570312 162.46875 C 22.09375 163.253906 22.65625 164.011719 23.253906 164.738281 C 23.855469 165.46875 24.488281 166.167969 25.152344 166.835938 C 25.820312 167.503906 26.519531 168.136719 27.25 168.734375 C 27.980469 169.332031 28.734375 169.894531 29.519531 170.421875 C 30.304688 170.945312 31.113281 171.429688 31.945312 171.878906 C 32.777344 172.324219 33.628906 172.726562 34.5 173.089844 C 35.371094 173.453125 36.257812 173.769531 37.160156 174.046875 C 38.0625 174.320312 38.976562 174.554688 39.902344 174.738281 C 40.828125 174.925781 41.761719 175.066406 42.699219 175.160156 C 43.636719 175.253906 44.582031 175.304688 45.523438 175.308594 L 68.003906 175.308594 C 68.921875 175.308594 69.832031 175.21875 70.734375 175.039062 C 71.632812 174.859375 72.507812 174.59375 73.359375 174.242188 C 74.207031 173.890625 75.015625 173.457031 75.777344 172.949219 C 76.542969 172.4375 77.25 171.859375 77.898438 171.207031 C 78.546875 170.558594 79.128906 169.851562 79.640625 169.085938 C 80.148438 168.324219 80.582031 167.515625 80.933594 166.667969 C 81.285156 165.816406 81.550781 164.941406 81.730469 164.042969 C 81.910156 163.140625 82 162.230469 82 161.3125 C 82 160.390625 81.910156 159.480469 81.730469 158.582031 C 81.550781 157.679688 81.285156 156.804688 80.933594 155.953125 C 80.582031 155.105469 80.148438 154.300781 79.640625 153.535156 C 79.128906 152.769531 78.546875 152.0625 77.898438 151.414062 C 77.25 150.765625 76.542969 150.183594 75.777344 149.671875 C 75.015625 149.164062 74.207031 148.730469 73.359375 148.378906 C 72.507812 148.027344 71.632812 147.761719 70.734375 147.582031 C 69.832031 147.402344 68.921875 147.316406 68.003906 147.316406 Z M 68.003906 147.316406 " fill-opacity="1" fill-rule="nonzero"/></g></svg>