<svg xmlns="http://www.w3.org/2000/svg" xmlns:xlink="http://www.w3.org/1999/xlink" width="256" zoomAndPan="magnify" viewBox="0 0 192 191.999996" height="256" preserveAspectRatio="xMidYMid meet" version="1.0"><defs><filter x="0%" y="0%" width="100%" height="100%" id="480169b30f"><feColorMatrix values="0 0 0 0 1 0 0 0 0 1 0 0 0 0 1 0 0 0 1 0" color-interpolation-filters="sRGB"/></filter><mask id="267d6456ab"><g filter="url(#480169b30f)"><rect x="-19.2" width="230.4" fill="#000000" y="-19.2" height="230.399995" fill-opacity="0.8"/></g></mask><clipPath id="6503d0c438"><path d="M 0.441406 31 L 149.640625 31 L 149.640625 168.871094 L 0.441406 168.871094 Z M 0.441406 31 " clip-rule="nonzero"/></clipPath><clipPath id="79ce6c971e"><path d="M 63 0.933594 L 87 0.933594 L 87 91.519531 L 63 91.519531 Z M 63 0.933594 " clip-rule="nonzero"/></clipPath><clipPath id="3948807812"><rect x="0" width="150" y="0" height="170"/></clipPath></defs><g mask="url(#267d6456ab)"><g transform="matrix(1, 0, 0, 1, 21, 11)"><g clip-path="url(#3948807812)"><g clip-path="url(#6503d0c438)"><path fill="#a6a6a6" d="M 74.996094 169.078125 C 33.886719 169.078125 0.441406 135.632812 0.441406 94.523438 C 0.441406 70.515625 12.113281 47.832031 31.667969 33.851562 C 36.957031 30.070312 44.308594 31.289062 48.089844 36.578125 C 51.871094 41.867188 50.652344 49.21875 45.363281 53 C 31.976562 62.574219 23.984375 78.09375 23.984375 94.523438 C 23.984375 122.652344 46.867188 145.535156 74.996094 145.535156 C 103.121094 145.535156 126.007812 122.652344 126.007812 94.523438 C 126.007812 78.09375 118.015625 62.574219 104.628906 53 C 99.339844 49.21875 98.121094 41.867188 101.902344 36.578125 C 105.683594 31.289062 113.035156 30.070312 118.324219 33.851562 C 137.878906 47.832031 149.550781 70.515625 149.550781 94.523438 C 149.550781 135.632812 116.105469 169.078125 74.996094 169.078125 Z M 74.996094 169.078125 " fill-opacity="1" fill-rule="nonzero"/></g><g clip-path="url(#79ce6c971e)"><path fill="#a6a6a6" d="M 74.996094 91.183594 C 68.496094 91.183594 63.222656 85.914062 63.222656 79.410156 L 63.222656 12.703125 C 63.222656 6.203125 68.496094 0.933594 74.996094 0.933594 C 81.496094 0.933594 86.765625 6.203125 86.765625 12.703125 L 86.765625 79.410156 C 86.765625 85.914062 81.496094 91.183594 74.996094 91.183594 Z M 74.996094 91.183594 " fill-opacity="1" fill-rule="nonzero"/></g></g></g></g></svg>