<svg xmlns="http://www.w3.org/2000/svg" xmlns:xlink="http://www.w3.org/1999/xlink" width="256" zoomAndPan="magnify" viewBox="0 0 192 191.999996" height="256" preserveAspectRatio="xMidYMid meet" version="1.0"><defs><filter x="0%" y="0%" width="100%" height="100%" id="509e8d866e"><feColorMatrix values="0 0 0 0 1 0 0 0 0 1 0 0 0 0 1 0 0 0 1 0" color-interpolation-filters="sRGB"/></filter><mask id="a9893f3346"><g filter="url(#509e8d866e)"><rect x="-19.2" width="230.4" fill="#000000" y="-19.2" height="230.399995" fill-opacity="0.8"/></g></mask><clipPath id="ab10aa5d96"><path d="M 0.222656 1.222656 L 97 1.222656 L 97 148 L 0.222656 148 Z M 0.222656 1.222656 " clip-rule="nonzero"/></clipPath><clipPath id="1bcd936238"><rect x="0" width="148" y="0" height="149"/></clipPath></defs><g mask="url(#a9893f3346)"><g transform="matrix(1, 0, 0, 1, 22, 21)"><g clip-path="url(#1bcd936238)"><g clip-path="url(#ab10aa5d96)"><path fill="#a6a6a6" d="M 57.898438 140.839844 L 64.929688 116.886719 C 65.667969 114.355469 67.121094 112.074219 69.144531 110.261719 L 87.175781 92.402344 C 85.734375 91.871094 84.292969 91.359375 82.867188 90.886719 C 81.964844 90.59375 76.261719 88.023438 79.824219 77.1875 L 79.773438 77.1875 C 89.066406 67.621094 96.164062 52.222656 96.164062 37.066406 C 96.164062 13.757812 80.664062 1.539062 62.652344 1.539062 C 44.628906 1.539062 29.214844 13.753906 29.214844 37.066406 C 29.214844 52.285156 36.277344 67.746094 45.621094 77.289062 C 49.265625 86.847656 42.75 90.394531 41.390625 90.886719 C 22.523438 97.714844 0.390625 110.148438 0.390625 122.425781 C 0.390625 125.738281 0.390625 123.730469 0.390625 127.027344 C 0.390625 142.792969 29.210938 147.070312 57.652344 147.507812 C 57.246094 145.324219 57.25 143.050781 57.898438 140.839844 Z M 57.898438 140.839844 " fill-opacity="1" fill-rule="nonzero"/></g><path fill="#a6a6a6" d="M 123.300781 98.238281 L 123.261719 98.269531 L 117.753906 92.75 L 117.785156 92.714844 L 110.410156 85.34375 L 76.851562 118.597656 C 76.390625 118.96875 76 119.4375 75.820312 120.050781 L 68.78125 144.035156 C 68.476562 145.089844 68.765625 146.214844 69.53125 146.984375 C 70.097656 147.558594 70.859375 147.859375 71.640625 147.859375 C 71.921875 147.859375 72.203125 147.820312 72.476562 147.738281 L 96.472656 140.699219 C 97.039062 140.53125 97.480469 140.175781 97.839844 139.753906 L 131.472656 106.414062 Z M 90.546875 125.867188 L 90.976562 133.59375 L 92.917969 135.527344 L 80.019531 139.3125 L 77.210938 136.503906 L 80.996094 123.605469 L 82.613281 125.222656 Z M 90.546875 125.867188 " fill-opacity="1" fill-rule="nonzero"/><path fill="#a6a6a6" d="M 113.460938 82 L 134.527344 103.066406 L 139.351562 98.550781 L 118.28125 77.476562 Z M 113.460938 82 " fill-opacity="1" fill-rule="nonzero"/><path fill="#a6a6a6" d="M 144.890625 81.695312 L 134.792969 71.605469 C 132.007812 68.816406 127.511719 68.789062 124.75 71.546875 L 121.65625 74.679688 L 141.84375 94.878906 L 144.945312 91.738281 C 147.699219 88.980469 147.675781 84.484375 144.890625 81.695312 Z M 144.890625 81.695312 " fill-opacity="1" fill-rule="nonzero"/></g></g></g></svg>