<svg xmlns="http://www.w3.org/2000/svg" xmlns:xlink="http://www.w3.org/1999/xlink" width="256" zoomAndPan="magnify" viewBox="0 0 192 191.999996" height="256" preserveAspectRatio="xMidYMid meet" version="1.0"><defs><clipPath id="a2a3735075"><path d="M 11.476562 8.644531 L 180.523438 8.644531 L 180.523438 183.355469 L 11.476562 183.355469 Z M 11.476562 8.644531 " clip-rule="nonzero"/></clipPath><clipPath id="1a0c12ef62"><path d="M 180.355469 154.429688 C 180.355469 170.308594 167.480469 183.1875 151.597656 183.1875 L 40.402344 183.1875 C 24.519531 183.1875 11.644531 170.3125 11.644531 154.429688 L 11.644531 37.570312 C 11.644531 21.691406 24.519531 8.8125 40.402344 8.8125 L 151.597656 8.8125 C 167.480469 8.8125 180.355469 21.691406 180.355469 37.570312 Z M 180.355469 154.429688 " clip-rule="nonzero"/></clipPath><clipPath id="c35f532c90"><path d="M 35.085938 36 L 156.585938 36 L 156.585938 156.585938 L 35.085938 156.585938 Z M 35.085938 36 " clip-rule="nonzero"/></clipPath></defs><g clip-path="url(#a2a3735075)"><g clip-path="url(#1a0c12ef62)"><path fill="#ababab" d="M 11.476562 8.644531 L 180.523438 8.644531 L 180.523438 183.355469 L 11.476562 183.355469 Z M 11.476562 8.644531 " fill-opacity="1" fill-rule="nonzero"/></g></g><g clip-path="url(#c35f532c90)"><path fill="#ffffff" d="M 152.328125 67.8125 C 157.386719 62.75 157.386719 54.542969 152.328125 49.484375 L 143.164062 40.320312 C 138.101562 35.257812 129.894531 35.257812 124.832031 40.320312 L 49.226562 115.925781 C 48.585938 116.566406 48.085938 117.335938 47.761719 118.179688 L 36.304688 147.964844 C 35.386719 150.355469 35.960938 153.0625 37.773438 154.875 C 39.582031 156.683594 42.289062 157.257812 44.679688 156.339844 L 74.464844 144.882812 C 75.3125 144.558594 76.078125 144.058594 76.71875 143.417969 Z M 134 49.484375 L 143.164062 58.648438 L 68.527344 133.28125 L 53.636719 139.007812 L 59.363281 124.117188 Z M 134 49.484375 " fill-opacity="1" fill-rule="evenodd"/></g><path fill="#ffffff" d="M 113.378906 60.9375 L 131.710938 79.269531 L 140.875 70.101562 L 122.546875 51.773438 Z M 113.378906 60.9375 " fill-opacity="1" fill-rule="evenodd"/></svg>