<svg xmlns="http://www.w3.org/2000/svg" xmlns:xlink="http://www.w3.org/1999/xlink" width="256" zoomAndPan="magnify" viewBox="0 0 192 191.999996" height="256" preserveAspectRatio="xMidYMid meet" version="1.0"><defs><clipPath id="8cbd6bda94"><path d="M 4.601562 92 L 187 92 L 187 179 L 4.601562 179 Z M 4.601562 92 " clip-rule="nonzero"/></clipPath></defs><path fill="#595858" d="M 60.371094 25.566406 C 59.46875 30.074219 60.070312 35.121094 60.070312 39.746094 C 60.128906 44.613281 60.308594 49.359375 60.730469 54.164062 C 61.152344 58.789062 69.019531 59.449219 69.980469 54.824219 C 71.125 49.597656 71.664062 44.730469 71.542969 39.445312 C 71.363281 34.277344 71.183594 28.691406 69.199219 23.886719 C 68.417969 22.023438 66.015625 21.003906 64.15625 21.363281 C 61.992188 21.785156 60.789062 23.527344 60.371094 25.566406 Z M 60.371094 25.566406 " fill-opacity="1" fill-rule="nonzero"/><path fill="#595858" d="M 125.671875 24.007812 C 123.871094 27.609375 124.589844 32.957031 124.769531 36.921875 C 124.953125 41.546875 125.492188 45.8125 126.695312 50.257812 C 128.316406 56.328125 136.003906 55.425781 137.207031 49.660156 C 138.226562 44.851562 138.289062 40.46875 137.746094 35.601562 C 137.265625 31.214844 136.847656 25.988281 134.023438 22.382812 C 131.5 19.199219 127.175781 20.941406 125.671875 24.007812 Z M 125.671875 24.007812 " fill-opacity="1" fill-rule="nonzero"/><g clip-path="url(#8cbd6bda94)"><path fill="#595858" d="M 9.726562 177.5 C 13.871094 171.613281 16.453125 164.585938 20.359375 158.457031 C 24.265625 152.269531 28.648438 146.261719 33.457031 140.734375 C 42.707031 130.160156 53.941406 121.089844 66.316406 114.480469 C 80.855469 106.730469 97.195312 102.105469 113.71875 104.6875 C 128.195312 106.972656 141.773438 114.722656 151.925781 125.175781 C 157.992188 131.421875 162.980469 138.511719 167.003906 146.261719 C 171.089844 154.191406 173.914062 162.542969 177.277344 170.773438 C 179.5625 176.359375 187.371094 172.875 186.769531 167.527344 C 184.96875 150.648438 175.59375 133.886719 164.542969 121.328125 C 153.488281 108.714844 138.589844 98.921875 122.246094 94.894531 C 88.246094 86.484375 52.679688 104.207031 29.972656 129.019531 C 23.84375 135.6875 18.316406 142.835938 14.050781 150.828125 C 9.964844 158.335938 5.160156 167.109375 4.738281 175.757812 C 4.617188 178.460938 8.164062 179.722656 9.726562 177.5 Z M 9.726562 177.5 " fill-opacity="1" fill-rule="nonzero"/></g></svg>