<svg xmlns="http://www.w3.org/2000/svg" xmlns:xlink="http://www.w3.org/1999/xlink" width="256" zoomAndPan="magnify" viewBox="0 0 192 191.999996" height="256" preserveAspectRatio="xMidYMid meet" version="1.0"><defs><filter x="0%" y="0%" width="100%" height="100%" id="228d943e5b"><feColorMatrix values="0 0 0 0 1 0 0 0 0 1 0 0 0 0 1 0 0 0 1 0" color-interpolation-filters="sRGB"/></filter><mask id="842047f75a"><g filter="url(#228d943e5b)"><rect x="-19.2" width="230.4" fill="#000000" y="-19.2" height="230.399995" fill-opacity="0.8"/></g></mask><clipPath id="d85bafeb8a"><path d="M 67 32 L 177.320312 32 L 177.320312 142.636719 L 67 142.636719 Z M 67 32 " clip-rule="nonzero"/></clipPath><clipPath id="9005da105d"><path d="M 0.441406 0.949219 L 78 0.949219 L 78 78 L 0.441406 78 Z M 0.441406 0.949219 " clip-rule="nonzero"/></clipPath><clipPath id="74280270ae"><rect x="0" width="178" y="0" height="146"/></clipPath></defs><g mask="url(#842047f75a)"><g transform="matrix(1, 0, 0, 1, 7, 30)"><g clip-path="url(#74280270ae)"><g clip-path="url(#d85bafeb8a)"><path fill="#a6a6a6" d="M 122.117188 66.605469 C 133.5625 66.464844 142.949219 75.597656 143.105469 87.042969 C 143.105469 87.246094 143.105469 87.433594 143.105469 87.636719 C 143.339844 99.066406 134.265625 108.53125 122.824219 108.765625 C 111.398438 109 101.933594 99.929688 101.699219 88.5 C 101.699219 88.21875 101.699219 87.921875 101.699219 87.636719 C 101.523438 76.210938 110.644531 66.792969 122.070312 66.605469 C 122.085938 66.605469 122.101562 66.605469 122.117188 66.605469 Z M 124.332031 32.667969 C 121.238281 32.558594 118.164062 32.714844 115.101562 33.125 C 114.019531 33.265625 113.109375 34.035156 112.792969 35.070312 L 109.765625 44.992188 C 109.5 45.839844 108.855469 46.511719 108.007812 46.796875 C 106.578125 47.3125 105.167969 47.894531 103.785156 48.554688 C 102.984375 48.929688 102.058594 48.914062 101.289062 48.507812 L 92.121094 43.640625 C 91.148438 43.140625 89.988281 43.234375 89.125 43.890625 C 85.199219 46.890625 81.699219 50.375 78.71875 54.300781 C 78.058594 55.164062 77.964844 56.339844 78.46875 57.296875 L 83.332031 66.464844 C 83.726562 67.265625 83.726562 68.191406 83.332031 68.976562 C 82.671875 70.355469 82.078125 71.753906 81.574219 73.195312 C 81.277344 74.027344 80.617188 74.671875 79.769531 74.941406 L 69.851562 77.984375 C 68.8125 78.296875 68.042969 79.191406 67.902344 80.277344 C 67.246094 85.15625 67.246094 90.101562 67.902344 95 C 68.042969 96.066406 68.796875 96.976562 69.851562 97.289062 L 79.769531 100.335938 C 80.601562 100.601562 81.277344 101.246094 81.574219 102.078125 C 82.078125 103.507812 82.671875 104.917969 83.332031 106.300781 C 83.726562 107.085938 83.726562 108.011719 83.332031 108.8125 L 78.46875 117.980469 C 77.964844 118.9375 78.058594 120.097656 78.71875 120.976562 C 81.699219 124.886719 85.199219 128.386719 89.125 131.382812 C 89.988281 132.042969 91.148438 132.136719 92.121094 131.617188 L 101.289062 126.769531 C 102.058594 126.34375 102.984375 126.328125 103.785156 126.722656 C 105.167969 127.363281 106.578125 127.945312 108.007812 128.464844 C 108.855469 128.746094 109.5 129.421875 109.765625 130.269531 L 112.792969 140.1875 C 113.109375 141.242188 114.019531 141.992188 115.101562 142.136719 C 119.984375 142.792969 124.929688 142.792969 129.808594 142.136719 C 130.894531 141.992188 131.789062 141.242188 132.101562 140.1875 L 135.160156 130.269531 C 135.414062 129.421875 136.058594 128.746094 136.886719 128.464844 C 138.332031 127.945312 139.730469 127.363281 141.109375 126.722656 C 141.894531 126.328125 142.835938 126.34375 143.621094 126.769531 L 152.789062 131.617188 C 153.746094 132.136719 154.921875 132.042969 155.785156 131.382812 C 159.695312 128.386719 163.195312 124.886719 166.195312 120.976562 C 166.851562 120.097656 166.945312 118.9375 166.429688 117.980469 L 161.578125 108.8125 C 161.125 108.042969 161.0625 107.101562 161.40625 106.300781 C 162.066406 104.917969 162.660156 103.507812 163.164062 102.078125 C 163.460938 101.230469 164.136719 100.601562 164.96875 100.335938 L 174.890625 97.289062 C 175.925781 96.976562 176.695312 96.066406 176.835938 95 C 177.496094 90.101562 177.496094 85.15625 176.835938 80.277344 C 176.695312 79.191406 175.925781 78.296875 174.890625 77.984375 L 164.96875 74.941406 C 164.136719 74.671875 163.460938 74.027344 163.164062 73.195312 C 162.660156 71.753906 162.066406 70.355469 161.40625 68.976562 C 161.0625 68.160156 161.125 67.234375 161.578125 66.464844 L 166.429688 57.296875 C 166.945312 56.339844 166.851562 55.164062 166.195312 54.300781 C 163.195312 50.375 159.695312 46.890625 155.785156 43.890625 C 154.921875 43.234375 153.746094 43.140625 152.789062 43.640625 L 143.621094 48.507812 C 142.835938 48.914062 141.894531 48.929688 141.109375 48.554688 C 139.730469 47.894531 138.332031 47.3125 136.886719 46.796875 C 136.058594 46.511719 135.414062 45.839844 135.160156 44.992188 L 132.101562 35.070312 C 131.789062 34.035156 130.894531 33.28125 129.808594 33.125 C 127.988281 32.890625 126.152344 32.730469 124.332031 32.667969 " fill-opacity="1" fill-rule="nonzero"/></g><g clip-path="url(#9005da105d)"><path fill="#a6a6a6" d="M 38.835938 24.789062 C 46.839844 24.648438 53.449219 31.019531 53.574219 39.027344 C 53.589844 39.167969 53.589844 39.308594 53.574219 39.449219 C 53.574219 47.457031 47.089844 53.953125 39.085938 53.953125 C 31.082031 53.953125 24.597656 47.457031 24.597656 39.449219 C 24.503906 31.492188 30.859375 24.929688 38.835938 24.789062 Z M 40.449219 0.980469 C 38.285156 0.898438 36.117188 1.011719 33.96875 1.292969 C 33.214844 1.402344 32.601562 1.9375 32.382812 2.660156 L 30.25 9.597656 C 30.058594 10.191406 29.605469 10.664062 29.023438 10.867188 C 28.019531 11.226562 27.03125 11.636719 26.058594 12.089844 C 25.507812 12.359375 24.863281 12.359375 24.316406 12.058594 L 17.894531 8.671875 C 17.21875 8.308594 16.40625 8.386719 15.808594 8.84375 C 13.0625 10.929688 10.613281 13.378906 8.507812 16.125 C 8.054688 16.738281 7.992188 17.554688 8.351562 18.214844 L 11.757812 24.632812 C 12.039062 25.199219 12.039062 25.839844 11.757812 26.390625 C 11.289062 27.363281 10.878906 28.335938 10.519531 29.34375 C 10.3125 29.9375 9.84375 30.394531 9.246094 30.566406 L 2.308594 32.699219 C 1.570312 32.921875 1.039062 33.546875 0.945312 34.300781 C 0.488281 37.722656 0.488281 41.191406 0.945312 44.597656 C 1.039062 45.367188 1.570312 45.996094 2.308594 46.214844 L 9.246094 48.351562 C 9.84375 48.523438 10.3125 48.976562 10.519531 49.558594 C 10.878906 50.5625 11.289062 51.550781 11.757812 52.507812 C 12.039062 53.074219 12.039062 53.71875 11.757812 54.265625 L 8.351562 60.6875 C 7.992188 61.363281 8.054688 62.179688 8.507812 62.789062 C 10.613281 65.539062 13.0625 67.984375 15.808594 70.074219 C 16.40625 70.527344 17.21875 70.605469 17.894531 70.246094 L 24.316406 66.839844 C 24.863281 66.558594 25.507812 66.558594 26.058594 66.824219 C 27.03125 67.28125 28.019531 67.6875 29.023438 68.050781 C 29.605469 68.253906 30.058594 68.707031 30.25 69.304688 L 32.382812 76.257812 C 32.601562 76.980469 33.214844 77.511719 33.96875 77.625 C 37.390625 78.078125 40.859375 78.078125 44.28125 77.625 C 45.035156 77.511719 45.660156 76.980469 45.898438 76.257812 L 48.015625 69.304688 C 48.203125 68.707031 48.660156 68.253906 49.242188 68.050781 C 50.246094 67.6875 51.234375 67.28125 52.191406 66.824219 C 52.742188 66.542969 53.398438 66.558594 53.949219 66.839844 L 60.371094 70.246094 C 61.042969 70.605469 61.859375 70.527344 62.472656 70.074219 C 65.203125 67.984375 67.667969 65.539062 69.753906 62.789062 C 70.210938 62.179688 70.273438 61.363281 69.914062 60.6875 L 66.523438 54.265625 C 66.238281 53.71875 66.238281 53.074219 66.523438 52.507812 C 66.976562 51.550781 67.386719 50.5625 67.746094 49.558594 C 67.949219 48.976562 68.421875 48.539062 69.003906 48.351562 L 75.957031 46.214844 C 76.679688 45.996094 77.210938 45.367188 77.320312 44.597656 C 77.777344 41.191406 77.777344 37.722656 77.320312 34.300781 C 77.210938 33.546875 76.679688 32.921875 75.957031 32.699219 L 69.003906 30.566406 C 68.421875 30.378906 67.949219 29.921875 67.746094 29.34375 C 67.386719 28.335938 66.976562 27.363281 66.523438 26.390625 C 66.238281 25.839844 66.238281 25.199219 66.523438 24.632812 L 69.914062 18.214844 C 70.273438 17.554688 70.210938 16.738281 69.753906 16.125 C 67.667969 13.378906 65.203125 10.929688 62.472656 8.84375 C 61.859375 8.386719 61.042969 8.308594 60.371094 8.671875 L 53.949219 12.058594 C 53.398438 12.359375 52.742188 12.375 52.191406 12.089844 C 51.234375 11.636719 50.246094 11.226562 49.242188 10.867188 C 48.660156 10.664062 48.203125 10.191406 48.015625 9.597656 L 45.898438 2.660156 C 45.660156 1.9375 45.035156 1.402344 44.28125 1.292969 C 43.007812 1.121094 41.738281 1.027344 40.449219 0.980469 " fill-opacity="1" fill-rule="nonzero"/></g></g></g></g></svg>